<svg width="231" height="262" viewBox="0 0 231 262" fill="none" xmlns="http://www.w3.org/2000/svg">
<g clip-path="url(#clip0_16_690)">
<path d="M171.193 94.339C188.047 106.395 208.694 113.489 230.994 113.489V70.5485C226.773 70.5501 222.564 70.1092 218.435 69.233V103.034C196.137 103.034 175.492 95.9408 158.635 83.8852V171.516C158.635 215.354 123.122 250.888 79.3186 250.888C62.9745 250.888 47.7826 245.944 35.1633 237.463C49.5665 252.201 69.6527 261.343 91.8738 261.343C135.681 261.343 171.194 225.809 171.194 181.969V94.339H171.193ZM186.686 51.0168C178.072 41.6002 172.416 29.4307 171.193 15.9766V10.4538H159.292C162.287 27.5534 172.506 42.1621 186.686 51.0168ZM62.8689 203.824C58.0561 197.511 55.4547 189.786 55.467 181.843C55.467 161.794 71.7101 145.537 91.7502 145.537C95.4843 145.535 99.1965 146.109 102.756 147.239V103.337C98.5963 102.767 94.3986 102.524 90.2027 102.614V136.784C86.6413 135.654 82.9273 135.081 79.1914 135.084C59.1521 135.084 42.9099 151.338 42.9099 171.39C42.9099 185.569 51.0283 197.844 62.8689 203.824Z" fill="#FF004F"/>
<path d="M158.635 83.8843C175.493 95.9399 196.136 103.033 218.435 103.033V69.2321C205.988 66.5787 194.969 60.0703 186.685 51.0168C172.505 42.1612 162.287 27.5525 159.292 10.4538H128.032V181.967C127.96 201.962 111.745 218.152 91.7485 218.152C79.9656 218.152 69.4967 212.532 62.8671 203.823C51.0284 197.844 42.9091 185.568 42.9091 171.391C42.9091 151.341 59.1513 135.084 79.1905 135.084C83.03 135.084 86.7305 135.683 90.2018 136.785V102.615C47.1673 103.504 12.5579 138.692 12.5579 181.968C12.5579 203.571 21.1761 223.155 35.1643 237.465C47.7836 245.944 62.9745 250.89 79.3196 250.89C123.124 250.89 158.636 215.353 158.636 171.516L158.635 83.8843Z" fill="black"/>
<path d="M218.435 69.2312V60.0938C207.211 60.1101 196.208 56.9646 186.685 51.0168C195.115 60.252 206.215 66.6205 218.435 69.2331M159.291 10.4529C159.005 8.81908 158.786 7.17436 158.634 5.52278V0H115.471V171.515C115.403 191.508 99.1874 207.698 79.1897 207.698C73.5205 207.707 67.9288 206.38 62.8663 203.825C69.4958 212.532 79.9648 218.151 91.7476 218.151C111.744 218.151 127.96 201.963 128.031 181.968V10.4538L159.291 10.4529ZM90.2037 102.614V92.8844C86.5969 92.3914 82.9608 92.1445 79.3205 92.1454C35.5117 92.1454 0 127.682 0 171.515C0 198.997 13.9566 223.217 35.1652 237.463C21.1771 223.154 12.5588 203.569 12.5588 181.967C12.5588 138.692 47.1673 103.504 90.2037 102.614Z" fill="#00F2EA"/>
</g>
<defs>
<clipPath id="clip0_16_690">
<rect width="231" height="262" fill="white"/>
</clipPath>
</defs>
</svg>
